<?xml version="1.0" encoding="UTF-8"?><svg xmlns="http://www.w3.org/2000/svg" xmlns:xlink="http://www.w3.org/1999/xlink" data-name="1" height="241.5" preserveAspectRatio="xMidYMid meet" version="1.0" viewBox="-0.1 -2.3 262.5 241.5" width="262.5" zoomAndPan="magnify"><g><g id="change1_1"><path d="M217.1232,195.6057,96.176,194.1178a34.66875,34.66875,0,0,1-34.3818-35.0553L64.0784,36.2392C64.4326,17.1958,80.4839,1.8087,99.7481,2.0457l120.9472,1.488A34.66854,34.66854,0,0,1,255.077,38.589l-2.2842,122.8232C252.4387,180.4557,236.3874,195.8427,217.1232,195.6057Z" fill="#dfe3fc"/></g><g id="change2_1"><path d="M155.3349,233.3893l-120.9472-1.488A34.66854,34.66854,0,0,1,.006,196.846L2.2902,74.0228c.3541-19.0435,16.4054-34.4306,35.6696-34.1936l120.9472,1.488a34.6686,34.6686,0,0,1,34.3817,35.0553l-2.2841,122.8233C190.6504,218.2392,174.5991,233.6263,155.3349,233.3893Z" fill="#dbe1fd"/></g><g id="change3_1"><path d="M13.2258,49.5204C18.398,44.6832,75.324,4.4004,89.5112,2.4029S223.1214-2.3251,224.2981,3.578s-41.9096,44.0153-50.5983,41.1662S42.8932,35.0074,13.2258,49.5204Z" fill="#fff"/></g><g id="change3_2"><path d="M169.1869,230.4283c-20.9875,8.7347,66.7066-22.5763,79.94-54.3511s10.209-119.606,6.0267-141.6059S191.8028,61.0937,192.543,68.882,197.9151,218.472,169.1869,230.4283Z" fill="#fff"/></g><g id="change3_3"><path d="M221.2164,2.1634c16.2704,1.5866,31.3141,10.7762,34.0227,32.6905,2.6344,21.3147-57.8963,47.8905-62.6961,34.0281-1.6229-4.6872-7.0461-16.2002-21.122-24.6348C158.8005,36.6847,202.4323,9.1592,221.2164,2.1634Z" fill="#fff"/></g><g id="change4_1"><path d="M29.6612,212.3706c-.1612,8.7126,114.0775,18.6974,137.4964-1.5204s20.081-128.4528,2.7789-132.7377-32.8979,58.867-54.7846,78.9896S30.5154,166.209,29.6612,212.3706Z" fill="#c5cdfd"/></g><g id="change3_4"><path d="M23.0078,162.2355c-7.0385-3.5907-10.4521-63.2857,3.3832-96.0498,8.7706-20.7699,78.9561-14.687,82.4726-3.4019s-2.1867,30.0854-36.4874,42.5113S57.4163,179.7894,23.0078,162.2355Z" fill="#fff" opacity=".7"/></g><g id="change2_2"><path d="M247.7148,73.084c5.7246-8.8878,11.6859,87.2418-7.6928,98.7806s-47.0591,40.106-42.8658,14.9972,29.6401-19.4426,33.2713-42.9523S224.6919,108.8283,247.7148,73.084Z" fill="#dbe1fd"/></g><g id="change2_3"><path d="M67.5851,26.5835C60.8349,24.106,87.0324,7.7779,99.0405,7.9256s80.9421-4.3575,82.0838,1.0098S106.1822,40.7499,67.5851,26.5835Z" fill="#dbe1fd"/></g></g></svg>