<?xml version="1.0" encoding="UTF-8"?><svg xmlns="http://www.w3.org/2000/svg" xmlns:xlink="http://www.w3.org/1999/xlink" height="800.0" preserveAspectRatio="xMidYMid meet" version="1.0" viewBox="0.0 0.0 1053.6 800.0" width="1053.6" zoomAndPan="magnify"><defs><clipPath id="a"><path d="M 0 0 L 1053.558594 0 L 1053.558594 800 L 0 800 Z M 0 0"/></clipPath><clipPath id="b"><path d="M 418 309 L 1053.558594 309 L 1053.558594 800 L 418 800 Z M 418 309"/></clipPath><clipPath id="c"><path d="M 811 679 L 1053.558594 679 L 1053.558594 800 L 811 800 Z M 811 679"/></clipPath></defs><g><g clip-path="url(#a)" id="change1_1"><path d="M 12.640625 800 L 0 705.621094 C 0 705.621094 35.429688 627.585938 64.210938 623.0625 C 92.992188 618.542969 197.324219 611.488281 197.324219 611.488281 C 197.324219 611.488281 251.289062 495.738281 280.070312 474.394531 C 308.851562 453.050781 352.023438 453.050781 352.023438 453.050781 L 405.988281 284.632812 L 492.332031 252.847656 L 647.027344 0 C 647.027344 0 765.753906 112.296875 776.542969 122.578125 C 787.335938 132.859375 855.691406 393.441406 859.289062 390.867188 C 862.886719 388.296875 898.863281 530.097656 920.449219 559.929688 C 942.035156 589.761719 1024.78125 665.097656 1035.578125 679.59375 C 1046.371094 694.09375 1053.558594 800 1053.558594 800 L 12.640625 800" fill="#f5fdff"/></g><g id="change2_1"><path d="M 578.675781 679.285156 L 463.550781 671.199219 C 463.550781 671.199219 402.390625 547.96875 402.390625 540.964844 C 402.390625 533.964844 531.902344 425.40625 531.902344 425.40625 L 616.449219 309.785156 L 585.867188 191.621094 L 647.027344 0 L 492.332031 252.847656 L 405.988281 284.632812 L 352.023438 453.050781 C 352.023438 453.050781 308.851562 453.050781 280.070312 474.394531 C 251.289062 495.738281 197.324219 611.488281 197.324219 611.488281 C 197.324219 611.488281 92.992188 618.542969 64.210938 623.0625 C 35.429688 627.585938 0 705.621094 0 705.621094 L 12.640625 800 L 477.941406 800 L 463.550781 747.679688 L 578.675781 679.285156" fill="#a6e6f2"/></g><g id="change3_1"><path d="M 362.816406 679.285156 L 354.554688 800 L 477.941406 800 L 463.550781 747.679688 L 578.675781 679.285156 L 463.550781 671.199219 C 463.550781 671.199219 402.390625 547.96875 402.390625 540.964844 C 402.390625 533.964844 531.902344 425.40625 531.902344 425.40625 L 616.449219 309.785156 L 585.867188 191.621094 L 647.027344 0 L 492.332031 252.847656 L 510.316406 309.785156 L 440.164062 454.847656 L 330.4375 518.167969 L 362.816406 679.285156" fill="#79d0df"/></g><g id="change3_2"><path d="M 45.183594 631.757812 L 161.347656 671.199219 L 395.195312 713.480469 C 395.195312 713.480469 326.019531 671.445312 309.75 662.484375 C 273.40625 642.472656 197.324219 611.488281 197.324219 611.488281 C 197.324219 611.488281 115.566406 617.019531 76.84375 621.421875 C 58.21875 626.964844 45.183594 631.757812 45.183594 631.757812" fill="#79d0df"/></g><g id="change3_3"><path d="M 273.40625 480.519531 C 279.035156 493.410156 286.582031 504.523438 296.257812 506.597656 C 321.441406 511.992188 330.4375 518.167969 330.4375 518.167969 L 440.164062 454.847656 L 352.023438 453.050781 C 352.023438 453.050781 308.851562 453.050781 280.070312 474.394531 C 277.976562 475.945312 275.734375 478.050781 273.40625 480.519531" fill="#79d0df"/></g><g id="change3_4"><path d="M 492.332031 252.847656 L 510.316406 309.785156 L 405.988281 284.632812 Z M 492.332031 252.847656" fill="#79d0df"/></g><g clip-path="url(#b)" id="change2_2"><path d="M 811.621094 679.59375 C 768.449219 657.699219 733.371094 611.488281 733.371094 611.488281 L 771.148438 471.519531 L 722.578125 309.785156 C 722.578125 309.785156 717.183594 443.574219 722.578125 454.847656 C 727.976562 466.125 682.105469 597.65625 679.40625 611.488281 C 676.710938 625.320312 692.898438 709.902344 679.40625 713.480469 C 665.917969 717.058594 463.550781 747.679688 463.550781 747.679688 C 463.550781 747.679688 432.410156 768.273438 418.0625 800 L 1053.558594 800 C 1053.558594 800 1046.371094 694.09375 1035.578125 679.59375 C 1035.578125 679.59375 997.800781 704.507812 976.214844 713.480469 C 954.628906 722.457031 854.792969 701.492188 811.621094 679.59375" fill="#a6e6f2"/></g><g clip-path="url(#c)" id="change3_6"><path d="M 1003.199219 751.011719 C 1003.199219 751.011719 930.34375 765.628906 914.15625 765.628906 C 897.964844 765.628906 811.621094 722.609375 811.621094 722.609375 L 841.300781 779.117188 L 896.988281 800 L 1053.558594 800 C 1053.558594 800 1046.371094 694.09375 1035.578125 679.59375 L 1003.199219 751.011719" fill="#79d0df"/></g><g id="change3_5"><path d="M 782.269531 135.023438 L 722.578125 309.785156 L 771.148438 471.519531 L 733.371094 611.488281 L 784.824219 662.484375 L 763.054688 597.457031 L 811.621094 454.847656 L 746.863281 298.832031 L 782.269531 135.023438" fill="#79d0df"/></g></g></svg>